<svg width="12" height="12" viewBox="0 0 12 12" fill="none" xmlns="http://www.w3.org/2000/svg">
<path d="M10.6603 5.75017C10.6125 4.83195 10.2932 3.94861 9.74275 3.21209C9.57505 3.3927 9.39578 3.56223 9.20608 3.71959C8.62329 4.20366 7.97203 4.59878 7.2735 4.89209C7.37091 5.09625 7.46017 5.294 7.53892 5.48067V5.48242C7.56114 5.53458 7.58253 5.58709 7.60308 5.63992C8.48625 5.54075 9.41725 5.57692 10.3197 5.69884C10.4398 5.71517 10.553 5.73267 10.6603 5.75017ZM5.18575 1.40434C5.75423 2.20535 6.27846 3.03688 6.75608 3.89517C7.4695 3.614 8.05925 3.25934 8.53408 2.86442C8.6989 2.72858 8.85406 2.58142 8.99841 2.424C8.15899 1.71801 7.09693 1.33161 6.00008 1.33317C5.7271 1.33298 5.45463 1.3566 5.18575 1.40375V1.40434ZM1.481 4.83142C1.87838 4.82139 2.27529 4.79746 2.671 4.75967C3.62746 4.67412 4.57574 4.5138 5.50716 4.28017C5.02038 3.43446 4.49482 2.61167 3.93216 1.81442C3.33117 2.11215 2.80123 2.53566 2.37831 3.05621C1.95538 3.57677 1.64936 4.18219 1.481 4.83142ZM2.3735 8.93692C2.59983 8.60617 2.89733 8.234 3.29225 7.82917C4.14041 6.96 5.14142 6.28334 6.29992 5.91L6.33608 5.8995C6.23983 5.68717 6.14942 5.49759 6.05842 5.31909C4.98742 5.63117 3.85925 5.826 2.73516 5.92692C2.18683 5.9765 1.69508 5.99809 1.33341 6.00159C1.33238 7.0706 1.69992 8.10729 2.37408 8.93692H2.3735ZM7.753 10.3253C7.52805 9.19082 7.20963 8.07694 6.801 6.995C5.63316 7.41909 4.70275 8.03917 3.9835 8.77884C3.69323 9.07189 3.43564 9.3956 3.21525 9.74426C4.01955 10.3444 4.99656 10.6679 6.00008 10.6665C6.60086 10.6674 7.19613 10.5519 7.753 10.3264V10.3253ZM8.84558 9.69817C9.75632 8.99803 10.3767 7.9865 10.588 6.85734C10.3897 6.80775 10.1382 6.75817 9.86175 6.71967C9.247 6.63115 8.62321 6.62467 8.00675 6.70042C8.35387 7.67974 8.63412 8.68148 8.84558 9.69875V9.69817ZM6.00008 11.8332C2.77833 11.8332 0.166748 9.22159 0.166748 5.99984C0.166748 2.77809 2.77833 0.166504 6.00008 0.166504C9.22183 0.166504 11.8334 2.77809 11.8334 5.99984C11.8334 9.22159 9.22183 11.8332 6.00008 11.8332Z" fill="#2B2B2B"/>
</svg>
