<svg width="13" height="10" viewBox="0 0 13 10" fill="none" xmlns="http://www.w3.org/2000/svg">
<path d="M3.22854 1.5192C3.22838 1.79779 3.10026 2.06491 2.87236 2.2618C2.64446 2.4587 2.33546 2.56923 2.01332 2.56909C1.69119 2.56895 1.38231 2.45815 1.15464 2.26106C0.926969 2.06397 0.799155 1.79674 0.799317 1.51815C0.799478 1.23956 0.9276 0.972442 1.1555 0.77555C1.3834 0.578657 1.6924 0.468123 2.01454 0.468262C2.33667 0.468401 2.64555 0.579203 2.87322 0.776292C3.10089 0.973382 3.2287 1.24061 3.22854 1.5192ZM3.26498 3.34692H0.835755V9.92252H3.26498V3.34692ZM7.10315 3.34692H4.68607V9.92252H7.07886V6.47191C7.07886 4.54965 9.97571 4.37108 9.97571 6.47191V9.92252H12.3746V5.75762C12.3746 2.51709 8.08699 2.63789 7.07886 4.22927L7.10315 3.34692Z" fill="#2B2B2B"/>
</svg>
